<svg width="335" height="185" viewBox="0 0 335 185" fill="none" xmlns="http://www.w3.org/2000/svg">
<path d="M30.048 155V152.808H24.544V151.624L29.376 143.832H31.328V151.704H32.992V152.808H31.328V155H30.048ZM25.744 151.704H30.048V144.872H29.984L25.744 151.704ZM38.3938 155.192C37.7431 155.192 37.1724 155.112 36.6818 154.952C36.1911 154.781 35.7804 154.552 35.4498 154.264C35.1298 153.976 34.8844 153.635 34.7138 153.24C34.5538 152.845 34.4738 152.419 34.4738 151.96C34.4738 151.192 34.6818 150.584 35.0978 150.136C35.5138 149.688 36.0631 149.373 36.7458 149.192V149.064C36.1484 148.861 35.6738 148.536 35.3218 148.088C34.9804 147.629 34.8098 147.08 34.8098 146.44C34.8098 145.587 35.1244 144.909 35.7538 144.408C36.3831 143.896 37.2631 143.64 38.3938 143.64C39.5244 143.64 40.4044 143.896 41.0338 144.408C41.6631 144.909 41.9778 145.587 41.9778 146.44C41.9778 147.08 41.8018 147.629 41.4498 148.088C41.1084 148.536 40.6391 148.861 40.0418 149.064V149.192C40.7244 149.373 41.2738 149.688 41.6898 150.136C42.1058 150.584 42.3138 151.192 42.3138 151.96C42.3138 152.419 42.2284 152.845 42.0578 153.24C41.8978 153.635 41.6524 153.976 41.3218 154.264C40.9911 154.552 40.5804 154.781 40.0898 154.952C39.6098 155.112 39.0444 155.192 38.3938 155.192ZM38.3938 154.056C39.1831 154.056 39.8018 153.88 40.2498 153.528C40.6978 153.176 40.9218 152.68 40.9218 152.04V151.688C40.9218 151.048 40.6978 150.552 40.2498 150.2C39.8124 149.848 39.1938 149.672 38.3938 149.672C37.5938 149.672 36.9698 149.848 36.5218 150.2C36.0844 150.552 35.8658 151.048 35.8658 151.688V152.04C35.8658 152.68 36.0898 153.176 36.5378 153.528C36.9858 153.88 37.6044 154.056 38.3938 154.056ZM38.3938 148.584C39.1191 148.584 39.6684 148.429 40.0418 148.12C40.4258 147.811 40.6178 147.368 40.6178 146.792V146.568C40.6178 145.992 40.4204 145.549 40.0258 145.24C39.6418 144.931 39.0978 144.776 38.3938 144.776C37.6898 144.776 37.1404 144.931 36.7458 145.24C36.3618 145.549 36.1698 145.992 36.1698 146.568V146.792C36.1698 147.368 36.3564 147.811 36.7298 148.12C37.1138 148.429 37.6684 148.584 38.3938 148.584ZM47.9875 155.192C47.3048 155.192 46.7182 155.064 46.2275 154.808C45.7368 154.541 45.3315 154.163 45.0115 153.672C44.6915 153.181 44.4568 152.579 44.3075 151.864C44.1582 151.149 44.0835 150.333 44.0835 149.416C44.0835 148.509 44.1582 147.699 44.3075 146.984C44.4568 146.259 44.6915 145.651 45.0115 145.16C45.3315 144.669 45.7368 144.296 46.2275 144.04C46.7182 143.773 47.3048 143.64 47.9875 143.64C48.6702 143.64 49.2568 143.773 49.7475 144.04C50.2382 144.296 50.6435 144.669 50.9635 145.16C51.2835 145.651 51.5182 146.259 51.6675 146.984C51.8168 147.699 51.8915 148.509 51.8915 149.416C51.8915 150.333 51.8168 151.149 51.6675 151.864C51.5182 152.579 51.2835 153.181 50.9635 153.672C50.6435 154.163 50.2382 154.541 49.7475 154.808C49.2568 155.064 48.6702 155.192 47.9875 155.192ZM47.9875 154.024C48.4355 154.024 48.8195 153.939 49.1395 153.768C49.4595 153.587 49.7155 153.336 49.9075 153.016C50.1102 152.696 50.2595 152.312 50.3555 151.864C50.4515 151.405 50.4995 150.893 50.4995 150.328V148.504C50.4995 147.949 50.4515 147.443 50.3555 146.984C50.2595 146.525 50.1102 146.136 49.9075 145.816C49.7155 145.496 49.4595 145.251 49.1395 145.08C48.8195 144.899 48.4355 144.808 47.9875 144.808C47.5395 144.808 47.1555 144.899 46.8355 145.08C46.5155 145.251 46.2542 145.496 46.0515 145.816C45.8595 146.136 45.7155 146.525 45.6195 146.984C45.5235 147.443 45.4755 147.949 45.4755 148.504V150.328C45.4755 150.893 45.5235 151.405 45.6195 151.864C45.7155 152.312 45.8595 152.696 46.0515 153.016C46.2542 153.336 46.5155 153.587 46.8355 153.768C47.1555 153.939 47.5395 154.024 47.9875 154.024ZM47.9875 150.36C47.6142 150.36 47.3528 150.285 47.2035 150.136C47.0648 149.987 46.9955 149.805 46.9955 149.592V149.24C46.9955 149.027 47.0648 148.845 47.2035 148.696C47.3528 148.547 47.6142 148.472 47.9875 148.472C48.3608 148.472 48.6168 148.547 48.7555 148.696C48.9048 148.845 48.9795 149.027 48.9795 149.24V149.592C48.9795 149.805 48.9048 149.987 48.7555 150.136C48.6168 150.285 48.3608 150.36 47.9875 150.36ZM61.3733 155H53.9173V153.624L57.6453 150.264C58.1893 149.773 58.6373 149.272 58.9893 148.76C59.3413 148.237 59.5173 147.688 59.5173 147.112V146.92C59.5173 146.248 59.3413 145.731 58.9893 145.368C58.6373 144.995 58.1146 144.808 57.4213 144.808C56.7386 144.808 56.2106 144.984 55.8373 145.336C55.4746 145.677 55.2026 146.136 55.0213 146.712L53.8213 146.264C53.9279 145.933 54.0719 145.613 54.2533 145.304C54.4453 144.984 54.6853 144.701 54.9733 144.456C55.2613 144.211 55.6079 144.013 56.0133 143.864C56.4293 143.715 56.9093 143.64 57.4533 143.64C58.0079 143.64 58.4986 143.72 58.9253 143.88C59.3626 144.04 59.7253 144.264 60.0133 144.552C60.3119 144.84 60.5359 145.181 60.6853 145.576C60.8453 145.971 60.9253 146.403 60.9253 146.872C60.9253 147.299 60.8613 147.699 60.7333 148.072C60.6159 148.445 60.4453 148.803 60.2213 149.144C60.0079 149.485 59.7466 149.821 59.4373 150.152C59.1386 150.472 58.8026 150.792 58.4293 151.112L55.3093 153.832H61.3733V155ZM74.4488 150.808V149.464H79.0888V150.808H74.4488ZM99.7483 155H92.2923V153.624L96.0203 150.264C96.5643 149.773 97.0123 149.272 97.3643 148.76C97.7163 148.237 97.8923 147.688 97.8923 147.112V146.92C97.8923 146.248 97.7163 145.731 97.3643 145.368C97.0123 144.995 96.4896 144.808 95.7963 144.808C95.1136 144.808 94.5856 144.984 94.2123 145.336C93.8496 145.677 93.5776 146.136 93.3963 146.712L92.1963 146.264C92.3029 145.933 92.4469 145.613 92.6283 145.304C92.8203 144.984 93.0603 144.701 93.3483 144.456C93.6363 144.211 93.9829 144.013 94.3883 143.864C94.8043 143.715 95.2843 143.64 95.8283 143.64C96.3829 143.64 96.8736 143.72 97.3003 143.88C97.7376 144.04 98.1003 144.264 98.3883 144.552C98.6869 144.84 98.9109 145.181 99.0603 145.576C99.2203 145.971 99.3003 146.403 99.3003 146.872C99.3003 147.299 99.2363 147.699 99.1083 148.072C98.9909 148.445 98.8203 148.803 98.5963 149.144C98.3829 149.485 98.1216 149.821 97.8123 150.152C97.5136 150.472 97.1776 150.792 96.8043 151.112L93.6843 153.832H99.7483V155ZM109.342 155H101.886V153.624L105.614 150.264C106.158 149.773 106.606 149.272 106.958 148.76C107.31 148.237 107.486 147.688 107.486 147.112V146.92C107.486 146.248 107.31 145.731 106.958 145.368C106.606 144.995 106.083 144.808 105.39 144.808C104.707 144.808 104.179 144.984 103.806 145.336C103.443 145.677 103.171 146.136 102.99 146.712L101.79 146.264C101.897 145.933 102.041 145.613 102.222 145.304C102.414 144.984 102.654 144.701 102.942 144.456C103.23 144.211 103.577 144.013 103.982 143.864C104.398 143.715 104.878 143.64 105.422 143.64C105.977 143.64 106.467 143.72 106.894 143.88C107.331 144.04 107.694 144.264 107.982 144.552C108.281 144.84 108.505 145.181 108.654 145.576C108.814 145.971 108.894 146.403 108.894 146.872C108.894 147.299 108.83 147.699 108.702 148.072C108.585 148.445 108.414 148.803 108.19 149.144C107.977 149.485 107.715 149.821 107.406 150.152C107.107 150.472 106.771 150.792 106.398 151.112L103.278 153.832H109.342V155ZM111.704 155V153.832H114.904V144.824H114.792L111.976 147.448L111.192 146.6L114.152 143.832H116.248V153.832H119.192V155H111.704ZM127.954 145H122.962L122.642 149.272H122.754C123.031 148.899 123.34 148.605 123.682 148.392C124.023 148.168 124.492 148.056 125.09 148.056C125.58 148.056 126.028 148.136 126.434 148.296C126.85 148.445 127.207 148.669 127.506 148.968C127.804 149.267 128.039 149.629 128.21 150.056C128.38 150.472 128.466 150.952 128.466 151.496C128.466 152.04 128.38 152.541 128.21 153C128.039 153.448 127.788 153.837 127.458 154.168C127.127 154.488 126.727 154.739 126.258 154.92C125.788 155.101 125.255 155.192 124.658 155.192C124.188 155.192 123.767 155.139 123.394 155.032C123.031 154.925 122.706 154.781 122.418 154.6C122.14 154.419 121.895 154.216 121.682 153.992C121.468 153.768 121.276 153.533 121.106 153.288L122.114 152.52C122.263 152.744 122.412 152.947 122.562 153.128C122.722 153.309 122.903 153.469 123.106 153.608C123.308 153.736 123.538 153.837 123.794 153.912C124.05 153.987 124.348 154.024 124.69 154.024C125.458 154.024 126.044 153.816 126.45 153.4C126.866 152.984 127.074 152.408 127.074 151.672V151.544C127.074 150.808 126.866 150.232 126.45 149.816C126.034 149.4 125.436 149.192 124.658 149.192C124.124 149.192 123.708 149.283 123.41 149.464C123.122 149.645 122.855 149.869 122.61 150.136L121.474 149.976L121.874 143.832H127.954V145ZM141.605 150.808V149.464H146.245V150.808H141.605ZM159.673 155V153.832H162.873V144.824H162.761L159.945 147.448L159.161 146.6L162.121 143.832H164.217V153.832H167.161V155H159.673ZM169.266 155V153.832H172.466V144.824H172.354L169.538 147.448L168.754 146.6L171.714 143.832H173.81V153.832H176.754V155H169.266ZM182.3 155.192C181.649 155.192 181.079 155.112 180.588 154.952C180.097 154.781 179.687 154.552 179.356 154.264C179.036 153.976 178.791 153.635 178.62 153.24C178.46 152.845 178.38 152.419 178.38 151.96C178.38 151.192 178.588 150.584 179.004 150.136C179.42 149.688 179.969 149.373 180.652 149.192V149.064C180.055 148.861 179.58 148.536 179.228 148.088C178.887 147.629 178.716 147.08 178.716 146.44C178.716 145.587 179.031 144.909 179.66 144.408C180.289 143.896 181.169 143.64 182.3 143.64C183.431 143.64 184.311 143.896 184.94 144.408C185.569 144.909 185.884 145.587 185.884 146.44C185.884 147.08 185.708 147.629 185.356 148.088C185.015 148.536 184.545 148.861 183.948 149.064V149.192C184.631 149.373 185.18 149.688 185.596 150.136C186.012 150.584 186.22 151.192 186.22 151.96C186.22 152.419 186.135 152.845 185.964 153.24C185.804 153.635 185.559 153.976 185.228 154.264C184.897 154.552 184.487 154.781 183.996 154.952C183.516 155.112 182.951 155.192 182.3 155.192ZM182.3 154.056C183.089 154.056 183.708 153.88 184.156 153.528C184.604 153.176 184.828 152.68 184.828 152.04V151.688C184.828 151.048 184.604 150.552 184.156 150.2C183.719 149.848 183.1 149.672 182.3 149.672C181.5 149.672 180.876 149.848 180.428 150.2C179.991 150.552 179.772 151.048 179.772 151.688V152.04C179.772 152.68 179.996 153.176 180.444 153.528C180.892 153.88 181.511 154.056 182.3 154.056ZM182.3 148.584C183.025 148.584 183.575 148.429 183.948 148.12C184.332 147.811 184.524 147.368 184.524 146.792V146.568C184.524 145.992 184.327 145.549 183.932 145.24C183.548 144.931 183.004 144.776 182.3 144.776C181.596 144.776 181.047 144.931 180.652 145.24C180.268 145.549 180.076 145.992 180.076 146.568V146.792C180.076 147.368 180.263 147.811 180.636 148.12C181.02 148.429 181.575 148.584 182.3 148.584ZM191.414 148.568C192.192 148.568 192.774 148.397 193.158 148.056C193.552 147.704 193.75 147.256 193.75 146.712V146.6C193.75 146.003 193.558 145.555 193.174 145.256C192.8 144.957 192.31 144.808 191.702 144.808C191.104 144.808 190.619 144.941 190.246 145.208C189.883 145.464 189.584 145.805 189.35 146.232L188.342 145.464C188.48 145.24 188.651 145.021 188.854 144.808C189.056 144.584 189.291 144.387 189.558 144.216C189.835 144.045 190.15 143.907 190.502 143.8C190.864 143.693 191.275 143.64 191.734 143.64C192.214 143.64 192.662 143.704 193.078 143.832C193.494 143.949 193.856 144.131 194.166 144.376C194.475 144.611 194.715 144.904 194.886 145.256C195.067 145.608 195.158 146.008 195.158 146.456C195.158 146.819 195.099 147.144 194.982 147.432C194.875 147.72 194.72 147.971 194.518 148.184C194.326 148.397 194.096 148.579 193.83 148.728C193.563 148.877 193.28 148.989 192.982 149.064V149.128C193.291 149.192 193.59 149.299 193.878 149.448C194.166 149.587 194.422 149.773 194.646 150.008C194.87 150.232 195.046 150.509 195.174 150.84C195.312 151.16 195.382 151.528 195.382 151.944C195.382 152.424 195.286 152.867 195.094 153.272C194.912 153.667 194.651 154.008 194.31 154.296C193.979 154.573 193.574 154.792 193.094 154.952C192.624 155.112 192.102 155.192 191.526 155.192C191.035 155.192 190.598 155.139 190.214 155.032C189.84 154.925 189.504 154.781 189.206 154.6C188.918 154.419 188.662 154.216 188.438 153.992C188.224 153.768 188.032 153.533 187.862 153.288L188.87 152.52C189.019 152.744 189.174 152.947 189.334 153.128C189.494 153.309 189.675 153.469 189.878 153.608C190.091 153.736 190.331 153.837 190.598 153.912C190.864 153.987 191.174 154.024 191.526 154.024C192.315 154.024 192.918 153.843 193.334 153.48C193.76 153.117 193.974 152.6 193.974 151.928V151.8C193.974 151.139 193.766 150.627 193.35 150.264C192.944 149.901 192.331 149.72 191.51 149.72H190.182V148.568H191.414ZM208.761 150.808V149.464H213.401V150.808H208.761ZM231.517 155V152.808H226.013V151.624L230.845 143.832H232.797V151.704H234.461V152.808H232.797V155H231.517ZM227.213 151.704H231.517V144.872H231.453L227.213 151.704ZM243.655 155H236.199V153.624L239.927 150.264C240.471 149.773 240.919 149.272 241.271 148.76C241.623 148.237 241.799 147.688 241.799 147.112V146.92C241.799 146.248 241.623 145.731 241.271 145.368C240.919 144.995 240.396 144.808 239.703 144.808C239.02 144.808 238.492 144.984 238.119 145.336C237.756 145.677 237.484 146.136 237.303 146.712L236.103 146.264C236.209 145.933 236.353 145.613 236.535 145.304C236.727 144.984 236.967 144.701 237.255 144.456C237.543 144.211 237.889 144.013 238.295 143.864C238.711 143.715 239.191 143.64 239.735 143.64C240.289 143.64 240.78 143.72 241.207 143.88C241.644 144.04 242.007 144.264 242.295 144.552C242.593 144.84 242.817 145.181 242.967 145.576C243.127 145.971 243.207 146.403 243.207 146.872C243.207 147.299 243.143 147.699 243.015 148.072C242.897 148.445 242.727 148.803 242.503 149.144C242.289 149.485 242.028 149.821 241.719 150.152C241.42 150.472 241.084 150.792 240.711 151.112L237.591 153.832H243.655V155ZM249.456 155.192C248.806 155.192 248.235 155.112 247.744 154.952C247.254 154.781 246.843 154.552 246.512 154.264C246.192 153.976 245.947 153.635 245.776 153.24C245.616 152.845 245.536 152.419 245.536 151.96C245.536 151.192 245.744 150.584 246.16 150.136C246.576 149.688 247.126 149.373 247.808 149.192V149.064C247.211 148.861 246.736 148.536 246.384 148.088C246.043 147.629 245.872 147.08 245.872 146.44C245.872 145.587 246.187 144.909 246.816 144.408C247.446 143.896 248.326 143.64 249.456 143.64C250.587 143.64 251.467 143.896 252.096 144.408C252.726 144.909 253.04 145.587 253.04 146.44C253.04 147.08 252.864 147.629 252.512 148.088C252.171 148.536 251.702 148.861 251.104 149.064V149.192C251.787 149.373 252.336 149.688 252.752 150.136C253.168 150.584 253.376 151.192 253.376 151.96C253.376 152.419 253.291 152.845 253.12 153.24C252.96 153.635 252.715 153.976 252.384 154.264C252.054 154.552 251.643 154.781 251.152 154.952C250.672 155.112 250.107 155.192 249.456 155.192ZM249.456 154.056C250.246 154.056 250.864 153.88 251.312 153.528C251.76 153.176 251.984 152.68 251.984 152.04V151.688C251.984 151.048 251.76 150.552 251.312 150.2C250.875 149.848 250.256 149.672 249.456 149.672C248.656 149.672 248.032 149.848 247.584 150.2C247.147 150.552 246.928 151.048 246.928 151.688V152.04C246.928 152.68 247.152 153.176 247.6 153.528C248.048 153.88 248.667 154.056 249.456 154.056ZM249.456 148.584C250.182 148.584 250.731 148.429 251.104 148.12C251.488 147.811 251.68 147.368 251.68 146.792V146.568C251.68 145.992 251.483 145.549 251.088 145.24C250.704 144.931 250.16 144.776 249.456 144.776C248.752 144.776 248.203 144.931 247.808 145.24C247.424 145.549 247.232 145.992 247.232 146.568V146.792C247.232 147.368 247.419 147.811 247.792 148.12C248.176 148.429 248.731 148.584 249.456 148.584ZM262.826 147.928C262.826 148.76 262.698 149.544 262.442 150.28C262.197 151.005 261.877 151.672 261.482 152.28C261.087 152.877 260.65 153.411 260.17 153.88C259.701 154.339 259.237 154.712 258.778 155H257.05C257.658 154.563 258.197 154.136 258.666 153.72C259.146 153.304 259.567 152.872 259.93 152.424C260.293 151.965 260.597 151.48 260.842 150.968C261.087 150.445 261.29 149.859 261.45 149.208L261.37 149.176C261.093 149.635 260.735 150.019 260.298 150.328C259.871 150.627 259.311 150.776 258.618 150.776C258.127 150.776 257.674 150.696 257.258 150.536C256.853 150.376 256.501 150.147 256.202 149.848C255.914 149.549 255.685 149.192 255.514 148.776C255.354 148.349 255.274 147.869 255.274 147.336C255.274 146.792 255.359 146.296 255.53 145.848C255.711 145.389 255.967 145 256.298 144.68C256.629 144.349 257.023 144.093 257.482 143.912C257.951 143.731 258.469 143.64 259.034 143.64C259.621 143.64 260.149 143.741 260.618 143.944C261.087 144.136 261.482 144.419 261.802 144.792C262.133 145.155 262.383 145.603 262.554 146.136C262.735 146.669 262.826 147.267 262.826 147.928ZM259.05 149.672C259.818 149.672 260.41 149.464 260.826 149.048C261.253 148.632 261.466 148.045 261.466 147.288V147.16C261.466 146.403 261.253 145.816 260.826 145.4C260.41 144.984 259.818 144.776 259.05 144.776C258.282 144.776 257.685 144.984 257.258 145.4C256.842 145.816 256.634 146.403 256.634 147.16V147.288C256.634 148.045 256.842 148.632 257.258 149.048C257.685 149.464 258.282 149.672 259.05 149.672Z" fill="white"/>
<path d="M25.92 131V119.832H27.264V129.832H32.56V131H25.92ZM40.3458 129.656H40.2818C40.1964 129.859 40.0898 130.056 39.9618 130.248C39.8338 130.429 39.6738 130.589 39.4818 130.728C39.3004 130.867 39.0818 130.979 38.8258 131.064C38.5698 131.149 38.2711 131.192 37.9298 131.192C37.0658 131.192 36.3724 130.92 35.8498 130.376C35.3271 129.821 35.0658 129.043 35.0658 128.04V122.744H36.3458V127.816C36.3458 128.573 36.5111 129.139 36.8418 129.512C37.1724 129.875 37.6578 130.056 38.2977 130.056C38.5538 130.056 38.8044 130.024 39.0498 129.96C39.2951 129.896 39.5138 129.8 39.7058 129.672C39.8978 129.544 40.0524 129.384 40.1698 129.192C40.2871 128.989 40.3458 128.749 40.3458 128.472V122.744H41.6258V131H40.3458V129.656ZM48.4995 120.92C48.1262 120.92 47.8648 120.845 47.7155 120.696C47.5662 120.536 47.4915 120.339 47.4915 120.104V119.848C47.4915 119.613 47.5662 119.421 47.7155 119.272C47.8648 119.112 48.1262 119.032 48.4995 119.032C48.8728 119.032 49.1342 119.112 49.2835 119.272C49.4328 119.421 49.5075 119.613 49.5075 119.848V120.104C49.5075 120.339 49.4328 120.536 49.2835 120.696C49.1342 120.845 48.8728 120.92 48.4995 120.92ZM44.8835 129.912H47.8595V123.832H44.8835V122.744H49.1395V129.912H51.9235V131H44.8835V129.912ZM57.6773 131.192C56.8133 131.192 56.0666 131.048 55.4373 130.76C54.8186 130.461 54.2906 130.067 53.8533 129.576L54.7173 128.824C55.1119 129.24 55.5439 129.56 56.0133 129.784C56.4826 130.008 57.0479 130.12 57.7093 130.12C58.3493 130.12 58.8719 130.008 59.2773 129.784C59.6933 129.549 59.9013 129.187 59.9013 128.696C59.9013 128.483 59.8586 128.307 59.7733 128.168C59.6986 128.019 59.5919 127.901 59.4533 127.816C59.3146 127.731 59.1599 127.667 58.9893 127.624C58.8186 127.571 58.6373 127.528 58.4453 127.496L57.1493 127.304C56.8613 127.261 56.5466 127.203 56.2053 127.128C55.8746 127.053 55.5706 126.936 55.2933 126.776C55.0159 126.605 54.7813 126.381 54.5893 126.104C54.4079 125.827 54.3173 125.464 54.3173 125.016C54.3173 124.6 54.3973 124.243 54.5573 123.944C54.7279 123.635 54.9626 123.379 55.2613 123.176C55.5599 122.963 55.9119 122.808 56.3173 122.712C56.7226 122.605 57.1653 122.552 57.6453 122.552C58.3919 122.552 59.0373 122.669 59.5813 122.904C60.1359 123.139 60.6106 123.464 61.0052 123.88L60.1733 124.664C60.0773 124.547 59.9546 124.429 59.8053 124.312C59.6666 124.184 59.4906 124.072 59.2773 123.976C59.0746 123.869 58.8346 123.784 58.5573 123.72C58.2799 123.656 57.9599 123.624 57.5973 123.624C56.9466 123.624 56.4453 123.736 56.0933 123.96C55.7519 124.184 55.5813 124.509 55.5813 124.936C55.5813 125.149 55.6186 125.331 55.6933 125.48C55.7786 125.619 55.8906 125.731 56.0293 125.816C56.1679 125.901 56.3226 125.971 56.4933 126.024C56.6746 126.067 56.8559 126.104 57.0373 126.136L58.3333 126.328C58.6319 126.371 58.9466 126.429 59.2773 126.504C59.6079 126.579 59.9119 126.701 60.1893 126.872C60.4666 127.032 60.6959 127.251 60.8773 127.528C61.0693 127.805 61.1653 128.168 61.1653 128.616C61.1653 129.437 60.8453 130.072 60.2053 130.52C59.5759 130.968 58.7333 131.192 57.6773 131.192ZM73.4088 131V119.832H80.4488V121H74.7528V124.76H79.9688V125.928H74.7528V131H73.4088ZM86.3625 131.192C85.7865 131.192 85.2638 131.091 84.7945 130.888C84.3358 130.685 83.9412 130.397 83.6105 130.024C83.2905 129.64 83.0452 129.187 82.8745 128.664C82.7038 128.131 82.6185 127.533 82.6185 126.872C82.6185 126.221 82.7038 125.629 82.8745 125.096C83.0452 124.563 83.2905 124.109 83.6105 123.736C83.9412 123.352 84.3358 123.059 84.7945 122.856C85.2638 122.653 85.7865 122.552 86.3625 122.552C86.9385 122.552 87.4558 122.653 87.9145 122.856C88.3838 123.059 88.7785 123.352 89.0985 123.736C89.4292 124.109 89.6798 124.563 89.8505 125.096C90.0212 125.629 90.1065 126.221 90.1065 126.872C90.1065 127.533 90.0212 128.131 89.8505 128.664C89.6798 129.187 89.4292 129.64 89.0985 130.024C88.7785 130.397 88.3838 130.685 87.9145 130.888C87.4558 131.091 86.9385 131.192 86.3625 131.192ZM86.3625 130.088C87.0772 130.088 87.6532 129.875 88.0905 129.448C88.5278 129.021 88.7465 128.36 88.7465 127.464V126.28C88.7465 125.384 88.5278 124.723 88.0905 124.296C87.6532 123.869 87.0772 123.656 86.3625 123.656C85.6478 123.656 85.0718 123.869 84.6345 124.296C84.1972 124.723 83.9785 125.384 83.9785 126.28V127.464C83.9785 128.36 84.1972 129.021 84.6345 129.448C85.0718 129.875 85.6478 130.088 86.3625 130.088ZM92.7243 131V122.744H94.0043V124.088H94.0683C94.1536 123.885 94.2603 123.693 94.3883 123.512C94.5163 123.32 94.6709 123.155 94.8523 123.016C95.0443 122.877 95.2683 122.765 95.5243 122.68C95.7803 122.595 96.0789 122.552 96.4203 122.552C97.2843 122.552 97.9776 122.829 98.5003 123.384C99.0229 123.928 99.2843 124.701 99.2843 125.704V131H98.0043V125.928C98.0043 125.171 97.8389 124.611 97.5083 124.248C97.1776 123.875 96.6923 123.688 96.0523 123.688C95.7963 123.688 95.5456 123.72 95.3003 123.784C95.0549 123.848 94.8363 123.944 94.6443 124.072C94.4523 124.2 94.2976 124.365 94.1803 124.568C94.0629 124.771 94.0043 125.005 94.0043 125.272V131H92.7243ZM105.646 131.192C104.782 131.192 104.035 131.048 103.406 130.76C102.787 130.461 102.259 130.067 101.822 129.576L102.686 128.824C103.081 129.24 103.513 129.56 103.982 129.784C104.451 130.008 105.017 130.12 105.678 130.12C106.318 130.12 106.841 130.008 107.246 129.784C107.662 129.549 107.87 129.187 107.87 128.696C107.87 128.483 107.827 128.307 107.742 128.168C107.667 128.019 107.561 127.901 107.422 127.816C107.283 127.731 107.129 127.667 106.958 127.624C106.787 127.571 106.606 127.528 106.414 127.496L105.118 127.304C104.83 127.261 104.515 127.203 104.174 127.128C103.843 127.053 103.539 126.936 103.262 126.776C102.985 126.605 102.75 126.381 102.558 126.104C102.377 125.827 102.286 125.464 102.286 125.016C102.286 124.6 102.366 124.243 102.526 123.944C102.697 123.635 102.931 123.379 103.23 123.176C103.529 122.963 103.881 122.808 104.286 122.712C104.691 122.605 105.134 122.552 105.614 122.552C106.361 122.552 107.006 122.669 107.55 122.904C108.105 123.139 108.579 123.464 108.974 123.88L108.142 124.664C108.046 124.547 107.923 124.429 107.774 124.312C107.635 124.184 107.459 124.072 107.246 123.976C107.043 123.869 106.803 123.784 106.526 123.72C106.249 123.656 105.929 123.624 105.566 123.624C104.915 123.624 104.414 123.736 104.062 123.96C103.721 124.184 103.55 124.509 103.55 124.936C103.55 125.149 103.587 125.331 103.662 125.48C103.747 125.619 103.859 125.731 103.998 125.816C104.137 125.901 104.291 125.971 104.462 126.024C104.643 126.067 104.825 126.104 105.006 126.136L106.302 126.328C106.601 126.371 106.915 126.429 107.246 126.504C107.577 126.579 107.881 126.701 108.158 126.872C108.435 127.032 108.665 127.251 108.846 127.528C109.038 127.805 109.134 128.168 109.134 128.616C109.134 129.437 108.814 130.072 108.174 130.52C107.545 130.968 106.702 131.192 105.646 131.192ZM115.656 120.92C115.282 120.92 115.021 120.845 114.872 120.696C114.722 120.536 114.648 120.339 114.648 120.104V119.848C114.648 119.613 114.722 119.421 114.872 119.272C115.021 119.112 115.282 119.032 115.656 119.032C116.029 119.032 116.29 119.112 116.44 119.272C116.589 119.421 116.664 119.613 116.664 119.848V120.104C116.664 120.339 116.589 120.536 116.44 120.696C116.29 120.845 116.029 120.92 115.656 120.92ZM112.04 129.912H115.016V123.832H112.04V122.744H116.296V129.912H119.08V131H112.04V129.912Z" fill="white"/>
<path opacity="0.9" d="M30.144 46.24C29.3653 46.24 28.656 46.112 28.016 45.856C27.376 45.6 26.8267 45.2267 26.368 44.736C25.9093 44.2453 25.552 43.6427 25.296 42.928C25.0507 42.2027 24.928 41.376 24.928 40.448C24.928 39.52 25.0667 38.6987 25.344 37.984C25.632 37.2587 26.016 36.6507 26.496 36.16C26.976 35.6693 27.536 35.296 28.176 35.04C28.816 34.784 29.4987 34.656 30.224 34.656C30.6827 34.656 31.0933 34.688 31.456 34.752C31.8293 34.816 32.1493 34.8907 32.416 34.976C32.6933 35.0613 32.9173 35.1467 33.088 35.232C33.2587 35.3173 33.376 35.3813 33.44 35.424L32.992 36.704C32.896 36.64 32.7573 36.5707 32.576 36.496C32.3947 36.4213 32.1867 36.3467 31.952 36.272C31.728 36.1973 31.4773 36.1387 31.2 36.096C30.9333 36.0427 30.6613 36.016 30.384 36.016C29.7973 36.016 29.2693 36.1173 28.8 36.32C28.3307 36.5227 27.9307 36.816 27.6 37.2C27.2693 37.584 27.0133 38.0533 26.832 38.608C26.6613 39.152 26.576 39.7653 26.576 40.448C26.576 41.1093 26.6507 41.712 26.8 42.256C26.96 42.8 27.1947 43.2693 27.504 43.664C27.8133 44.048 28.1973 44.3467 28.656 44.56C29.1253 44.7733 29.6693 44.88 30.288 44.88C31.0027 44.88 31.5947 44.8053 32.064 44.656C32.5333 44.5067 32.8853 44.3733 33.12 44.256L33.52 45.536C33.4453 45.5893 33.312 45.6587 33.12 45.744C32.928 45.8187 32.688 45.8933 32.4 45.968C32.112 46.0427 31.776 46.1067 31.392 46.16C31.008 46.2133 30.592 46.24 30.144 46.24ZM38.2739 37.504C38.4019 37.504 38.5459 37.5147 38.7059 37.536C38.8765 37.5467 39.0419 37.568 39.2019 37.6C39.3619 37.6213 39.5059 37.648 39.6339 37.68C39.7725 37.7013 39.8739 37.7227 39.9379 37.744L39.6819 39.04C39.5645 38.9973 39.3672 38.9493 39.0899 38.896C38.8232 38.832 38.4765 38.8 38.0499 38.8C37.7725 38.8 37.4952 38.832 37.2179 38.896C36.9512 38.9493 36.7752 38.9867 36.6899 39.008V46H35.2019V38.032C35.5539 37.904 35.9912 37.7867 36.5139 37.68C37.0365 37.5627 37.6232 37.504 38.2739 37.504ZM40.9098 41.856C40.9098 41.12 41.0164 40.48 41.2298 39.936C41.4431 39.3813 41.7258 38.9227 42.0778 38.56C42.4298 38.1973 42.8351 37.9253 43.2938 37.744C43.7524 37.5627 44.2218 37.472 44.7018 37.472C45.8218 37.472 46.6804 37.824 47.2778 38.528C47.8751 39.2213 48.1737 40.2827 48.1737 41.712C48.1737 41.776 48.1737 41.8613 48.1737 41.968C48.1737 42.064 48.1684 42.1547 48.1578 42.24H42.4618C42.5258 43.104 42.7764 43.76 43.2138 44.208C43.6511 44.656 44.3338 44.88 45.2618 44.88C45.7844 44.88 46.2218 44.8373 46.5738 44.752C46.9364 44.656 47.2084 44.5653 47.3898 44.48L47.5978 45.728C47.4164 45.824 47.0964 45.9253 46.6378 46.032C46.1898 46.1387 45.6778 46.192 45.1018 46.192C44.3764 46.192 43.7471 46.0853 43.2138 45.872C42.6911 45.648 42.2591 45.344 41.9178 44.96C41.5764 44.576 41.3204 44.1227 41.1497 43.6C40.9898 43.0667 40.9098 42.4853 40.9098 41.856ZM46.6218 41.04C46.6324 40.368 46.4618 39.8187 46.1098 39.392C45.7684 38.9547 45.2938 38.736 44.6858 38.736C44.3444 38.736 44.0404 38.8053 43.7738 38.944C43.5178 39.072 43.2991 39.2427 43.1178 39.456C42.9364 39.6693 42.7924 39.9147 42.6858 40.192C42.5898 40.4693 42.5258 40.752 42.4938 41.04H46.6218ZM55.6873 39.44C55.5059 39.2907 55.2446 39.1467 54.9033 39.008C54.5619 38.8693 54.1886 38.8 53.7833 38.8C53.3566 38.8 52.9886 38.88 52.6793 39.04C52.3806 39.1893 52.1353 39.4027 51.9433 39.68C51.7513 39.9467 51.6126 40.2667 51.5273 40.64C51.4419 41.0133 51.3993 41.4133 51.3993 41.84C51.3993 42.8107 51.6393 43.5627 52.1193 44.096C52.5993 44.6187 53.2393 44.88 54.0393 44.88C54.4446 44.88 54.7806 44.864 55.0473 44.832C55.3246 44.7893 55.5379 44.7467 55.6873 44.704V39.44ZM55.6873 33.84L57.1753 33.584V45.76C56.8339 45.856 56.3966 45.952 55.8633 46.048C55.3299 46.144 54.7166 46.192 54.0233 46.192C53.3833 46.192 52.8073 46.0907 52.2953 45.888C51.7833 45.6853 51.3459 45.3973 50.9833 45.024C50.6206 44.6507 50.3379 44.1973 50.1353 43.664C49.9433 43.12 49.8473 42.512 49.8473 41.84C49.8473 41.2 49.9273 40.6133 50.0872 40.08C50.2579 39.5467 50.5033 39.088 50.8233 38.704C51.1433 38.32 51.5326 38.0213 51.9913 37.808C52.4606 37.5947 52.9939 37.488 53.5913 37.488C54.0713 37.488 54.4926 37.552 54.8553 37.68C55.2286 37.808 55.5059 37.9307 55.6873 38.048V33.84ZM61.2211 46H59.7331V37.68H61.2211V46ZM60.4691 36.176C60.2025 36.176 59.9731 36.0907 59.7811 35.92C59.5998 35.7387 59.5091 35.4987 59.5091 35.2C59.5091 34.9013 59.5998 34.6667 59.7811 34.496C59.9731 34.3147 60.2025 34.224 60.4691 34.224C60.7358 34.224 60.9598 34.3147 61.1411 34.496C61.3331 34.6667 61.4291 34.9013 61.4291 35.2C61.4291 35.4987 61.3331 35.7387 61.1411 35.92C60.9598 36.0907 60.7358 36.176 60.4691 36.176ZM65.172 37.68H68.324V38.928H65.172V42.768C65.172 43.184 65.204 43.5307 65.268 43.808C65.332 44.0747 65.428 44.288 65.556 44.448C65.684 44.5973 65.844 44.704 66.036 44.768C66.228 44.832 66.452 44.864 66.708 44.864C67.156 44.864 67.5133 44.816 67.78 44.72C68.0573 44.6133 68.2493 44.5387 68.356 44.496L68.644 45.728C68.4947 45.8027 68.2333 45.8933 67.86 46C67.4867 46.1173 67.06 46.176 66.58 46.176C66.0147 46.176 65.5453 46.1067 65.172 45.968C64.8093 45.8187 64.516 45.6 64.292 45.312C64.068 45.024 63.908 44.672 63.812 44.256C63.7267 43.8293 63.684 43.3387 63.684 42.784V35.36L65.172 35.104V37.68Z" fill="white"/>
<path d="M281.224 28.524L274.94 43.516H270.84L267.748 31.55C267.56 30.814 267.398 30.544 266.826 30.234C265.894 29.728 264.354 29.254 263 28.958L263.092 28.524H269.692C270.123 28.5236 270.541 28.6774 270.868 28.9576C271.196 29.2378 271.413 29.6259 271.48 30.052L273.114 38.728L277.15 28.524H281.224ZM297.29 38.622C297.306 34.664 291.818 34.446 291.856 32.678C291.868 32.14 292.38 31.568 293.5 31.422C294.813 31.2974 296.134 31.5295 297.326 32.094L298.006 28.914C296.846 28.4779 295.617 28.2524 294.378 28.248C290.544 28.248 287.846 30.288 287.822 33.206C287.798 35.364 289.748 36.566 291.218 37.286C292.73 38.02 293.238 38.492 293.23 39.148C293.22 40.156 292.026 40.598 290.91 40.616C288.96 40.646 287.83 40.09 286.926 39.67L286.224 42.954C287.13 43.37 288.802 43.734 290.536 43.75C294.61 43.75 297.276 41.738 297.29 38.622ZM307.412 43.516H311L307.87 28.524H304.558C304.204 28.5207 303.857 28.6239 303.563 28.82C303.268 29.0161 303.039 29.2963 302.906 29.624L297.088 43.516H301.16L301.97 41.276H306.946L307.412 43.516ZM303.086 38.204L305.126 32.574L306.302 38.204H303.086ZM286.766 28.524L283.56 43.516H279.68L282.89 28.524H286.766Z" fill="white"/>
</svg>
